<mxfile host="app.diagrams.net" modified="2021-06-15T23:29:25.105Z" agent="5.0 (Windows)" etag="RpJpmBK--6QA5bRY4rZe" version="14.7.7" type="github">
  <diagram id="R2lEEEUBdFMjLlhIrx00" name="Page-1">
    <mxGraphModel dx="1632" dy="696" grid="1" gridSize="10" guides="1" tooltips="1" connect="1" arrows="1" fold="1" page="1" pageScale="1" pageWidth="850" pageHeight="1100" math="0" shadow="0" extFonts="Permanent Marker^https://fonts.googleapis.com/css?family=Permanent+Marker">
      <root>
        <mxCell id="0" />
        <mxCell id="1" parent="0" />
        <mxCell id="mDtHskoxkxQPZ0tNgV-b-2" value="medicines_medicine" style="shape=table;startSize=20;container=1;collapsible=1;childLayout=tableLayout;fixedRows=1;rowLines=0;fontStyle=1;align=center;resizeLast=1;" parent="1" vertex="1">
          <mxGeometry x="330" y="940" width="200" height="330" as="geometry">
            <mxRectangle x="-30" y="1010" width="130" height="20" as="alternateBounds" />
          </mxGeometry>
        </mxCell>
        <mxCell id="mDtHskoxkxQPZ0tNgV-b-3" value="" style="shape=partialRectangle;collapsible=0;dropTarget=0;pointerEvents=0;fillColor=none;top=0;left=0;bottom=1;right=0;points=[[0,0.5],[1,0.5]];portConstraint=eastwest;" parent="mDtHskoxkxQPZ0tNgV-b-2" vertex="1">
          <mxGeometry y="20" width="200" height="30" as="geometry" />
        </mxCell>
        <mxCell id="mDtHskoxkxQPZ0tNgV-b-4" value="PK" style="shape=partialRectangle;connectable=0;top=0;left=0;bottom=0;right=0;fontStyle=1;overflow=hidden;strokeColor=#6c8ebf;fillColor=#DAE8FC;" parent="mDtHskoxkxQPZ0tNgV-b-3" vertex="1">
          <mxGeometry width="30" height="30" as="geometry" />
        </mxCell>
        <mxCell id="mDtHskoxkxQPZ0tNgV-b-5" value="id" style="shape=partialRectangle;connectable=0;fillColor=#dae8fc;top=0;left=0;bottom=0;right=0;align=left;spacingLeft=6;fontStyle=5;overflow=hidden;strokeColor=#6c8ebf;" parent="mDtHskoxkxQPZ0tNgV-b-3" vertex="1">
          <mxGeometry x="30" width="170" height="30" as="geometry" />
        </mxCell>
        <mxCell id="mDtHskoxkxQPZ0tNgV-b-6" value="" style="shape=partialRectangle;collapsible=0;dropTarget=0;pointerEvents=0;fillColor=none;top=0;left=0;bottom=0;right=0;points=[[0,0.5],[1,0.5]];portConstraint=eastwest;" parent="mDtHskoxkxQPZ0tNgV-b-2" vertex="1">
          <mxGeometry y="50" width="200" height="30" as="geometry" />
        </mxCell>
        <mxCell id="mDtHskoxkxQPZ0tNgV-b-7" value="" style="shape=partialRectangle;connectable=0;fillColor=none;top=0;left=0;bottom=0;right=0;editable=1;overflow=hidden;" parent="mDtHskoxkxQPZ0tNgV-b-6" vertex="1">
          <mxGeometry width="30" height="30" as="geometry" />
        </mxCell>
        <mxCell id="mDtHskoxkxQPZ0tNgV-b-8" value="name(CharField 100)" style="shape=partialRectangle;connectable=0;fillColor=none;top=0;left=0;bottom=0;right=0;align=left;spacingLeft=6;overflow=hidden;" parent="mDtHskoxkxQPZ0tNgV-b-6" vertex="1">
          <mxGeometry x="30" width="170" height="30" as="geometry" />
        </mxCell>
        <mxCell id="mDtHskoxkxQPZ0tNgV-b-9" value="" style="shape=partialRectangle;collapsible=0;dropTarget=0;pointerEvents=0;fillColor=none;top=0;left=0;bottom=0;right=0;points=[[0,0.5],[1,0.5]];portConstraint=eastwest;" parent="mDtHskoxkxQPZ0tNgV-b-2" vertex="1">
          <mxGeometry y="80" width="200" height="30" as="geometry" />
        </mxCell>
        <mxCell id="mDtHskoxkxQPZ0tNgV-b-10" value="" style="shape=partialRectangle;connectable=0;fillColor=none;top=0;left=0;bottom=0;right=0;editable=1;overflow=hidden;" parent="mDtHskoxkxQPZ0tNgV-b-9" vertex="1">
          <mxGeometry width="30" height="30" as="geometry" />
        </mxCell>
        <mxCell id="mDtHskoxkxQPZ0tNgV-b-11" value="description (TextField)" style="shape=partialRectangle;connectable=0;fillColor=none;top=0;left=0;bottom=0;right=0;align=left;spacingLeft=6;overflow=hidden;" parent="mDtHskoxkxQPZ0tNgV-b-9" vertex="1">
          <mxGeometry x="30" width="170" height="30" as="geometry" />
        </mxCell>
        <mxCell id="mDtHskoxkxQPZ0tNgV-b-12" value="" style="shape=partialRectangle;collapsible=0;dropTarget=0;pointerEvents=0;fillColor=none;top=0;left=0;bottom=0;right=0;points=[[0,0.5],[1,0.5]];portConstraint=eastwest;" parent="mDtHskoxkxQPZ0tNgV-b-2" vertex="1">
          <mxGeometry y="110" width="200" height="30" as="geometry" />
        </mxCell>
        <mxCell id="mDtHskoxkxQPZ0tNgV-b-13" value="" style="shape=partialRectangle;connectable=0;fillColor=none;top=0;left=0;bottom=0;right=0;editable=1;overflow=hidden;" parent="mDtHskoxkxQPZ0tNgV-b-12" vertex="1">
          <mxGeometry width="30" height="30" as="geometry" />
        </mxCell>
        <mxCell id="mDtHskoxkxQPZ0tNgV-b-14" value="date_fabrication (DateField)" style="shape=partialRectangle;connectable=0;fillColor=none;top=0;left=0;bottom=0;right=0;align=left;spacingLeft=6;overflow=hidden;" parent="mDtHskoxkxQPZ0tNgV-b-12" vertex="1">
          <mxGeometry x="30" width="170" height="30" as="geometry" />
        </mxCell>
        <mxCell id="mDtHskoxkxQPZ0tNgV-b-421" value="" style="shape=partialRectangle;collapsible=0;dropTarget=0;pointerEvents=0;fillColor=none;top=0;left=0;bottom=0;right=0;points=[[0,0.5],[1,0.5]];portConstraint=eastwest;" parent="mDtHskoxkxQPZ0tNgV-b-2" vertex="1">
          <mxGeometry y="140" width="200" height="30" as="geometry" />
        </mxCell>
        <mxCell id="mDtHskoxkxQPZ0tNgV-b-422" value="" style="shape=partialRectangle;connectable=0;fillColor=none;top=0;left=0;bottom=0;right=0;editable=1;overflow=hidden;" parent="mDtHskoxkxQPZ0tNgV-b-421" vertex="1">
          <mxGeometry width="30" height="30" as="geometry" />
        </mxCell>
        <mxCell id="mDtHskoxkxQPZ0tNgV-b-423" value="batch(TextField)" style="shape=partialRectangle;connectable=0;fillColor=none;top=0;left=0;bottom=0;right=0;align=left;spacingLeft=6;overflow=hidden;" parent="mDtHskoxkxQPZ0tNgV-b-421" vertex="1">
          <mxGeometry x="30" width="170" height="30" as="geometry" />
        </mxCell>
        <mxCell id="mDtHskoxkxQPZ0tNgV-b-15" value="" style="shape=partialRectangle;collapsible=0;dropTarget=0;pointerEvents=0;fillColor=none;top=0;left=0;bottom=0;right=0;points=[[0,0.5],[1,0.5]];portConstraint=eastwest;" parent="mDtHskoxkxQPZ0tNgV-b-2" vertex="1">
          <mxGeometry y="170" width="200" height="30" as="geometry" />
        </mxCell>
        <mxCell id="mDtHskoxkxQPZ0tNgV-b-16" value="" style="shape=partialRectangle;connectable=0;fillColor=none;top=0;left=0;bottom=0;right=0;editable=1;overflow=hidden;" parent="mDtHskoxkxQPZ0tNgV-b-15" vertex="1">
          <mxGeometry width="30" height="30" as="geometry" />
        </mxCell>
        <mxCell id="mDtHskoxkxQPZ0tNgV-b-17" value="is_active (BooleanField)" style="shape=partialRectangle;connectable=0;fillColor=none;top=0;left=0;bottom=0;right=0;align=left;spacingLeft=6;overflow=hidden;" parent="mDtHskoxkxQPZ0tNgV-b-15" vertex="1">
          <mxGeometry x="30" width="170" height="30" as="geometry" />
        </mxCell>
        <mxCell id="mDtHskoxkxQPZ0tNgV-b-21" value="" style="shape=partialRectangle;collapsible=0;dropTarget=0;pointerEvents=0;fillColor=none;top=0;left=0;bottom=0;right=0;points=[[0,0.5],[1,0.5]];portConstraint=eastwest;" parent="mDtHskoxkxQPZ0tNgV-b-2" vertex="1">
          <mxGeometry y="200" width="200" height="30" as="geometry" />
        </mxCell>
        <mxCell id="mDtHskoxkxQPZ0tNgV-b-22" value="" style="shape=partialRectangle;connectable=0;fillColor=none;top=0;left=0;bottom=0;right=0;editable=1;overflow=hidden;" parent="mDtHskoxkxQPZ0tNgV-b-21" vertex="1">
          <mxGeometry width="30" height="30" as="geometry" />
        </mxCell>
        <mxCell id="mDtHskoxkxQPZ0tNgV-b-23" value="package(FileField)" style="shape=partialRectangle;connectable=0;fillColor=none;top=0;left=0;bottom=0;right=0;align=left;spacingLeft=6;overflow=hidden;" parent="mDtHskoxkxQPZ0tNgV-b-21" vertex="1">
          <mxGeometry x="30" width="170" height="30" as="geometry" />
        </mxCell>
        <mxCell id="mDtHskoxkxQPZ0tNgV-b-24" value="" style="shape=partialRectangle;collapsible=0;dropTarget=0;pointerEvents=0;fillColor=none;top=0;left=0;bottom=0;right=0;points=[[0,0.5],[1,0.5]];portConstraint=eastwest;" parent="mDtHskoxkxQPZ0tNgV-b-2" vertex="1">
          <mxGeometry y="230" width="200" height="30" as="geometry" />
        </mxCell>
        <mxCell id="mDtHskoxkxQPZ0tNgV-b-25" value="" style="shape=partialRectangle;connectable=0;fillColor=none;top=0;left=0;bottom=0;right=0;editable=1;overflow=hidden;" parent="mDtHskoxkxQPZ0tNgV-b-24" vertex="1">
          <mxGeometry width="30" height="30" as="geometry" />
        </mxCell>
        <mxCell id="mDtHskoxkxQPZ0tNgV-b-26" value="created_on (DataTimeField)" style="shape=partialRectangle;connectable=0;fillColor=none;top=0;left=0;bottom=0;right=0;align=left;spacingLeft=6;overflow=hidden;" parent="mDtHskoxkxQPZ0tNgV-b-24" vertex="1">
          <mxGeometry x="30" width="170" height="30" as="geometry" />
        </mxCell>
        <mxCell id="mDtHskoxkxQPZ0tNgV-b-27" value="" style="shape=partialRectangle;collapsible=0;dropTarget=0;pointerEvents=0;fillColor=none;top=0;left=0;bottom=0;right=0;points=[[0,0.5],[1,0.5]];portConstraint=eastwest;" parent="mDtHskoxkxQPZ0tNgV-b-2" vertex="1">
          <mxGeometry y="260" width="200" height="30" as="geometry" />
        </mxCell>
        <mxCell id="mDtHskoxkxQPZ0tNgV-b-28" value="" style="shape=partialRectangle;connectable=0;fillColor=none;top=0;left=0;bottom=0;right=0;editable=1;overflow=hidden;" parent="mDtHskoxkxQPZ0tNgV-b-27" vertex="1">
          <mxGeometry width="30" height="30" as="geometry" />
        </mxCell>
        <mxCell id="mDtHskoxkxQPZ0tNgV-b-29" value="updated_on (DataTimeField)" style="shape=partialRectangle;connectable=0;fillColor=none;top=0;left=0;bottom=0;right=0;align=left;spacingLeft=6;overflow=hidden;" parent="mDtHskoxkxQPZ0tNgV-b-27" vertex="1">
          <mxGeometry x="30" width="170" height="30" as="geometry" />
        </mxCell>
        <mxCell id="mDtHskoxkxQPZ0tNgV-b-33" value="" style="shape=partialRectangle;collapsible=0;dropTarget=0;pointerEvents=0;fillColor=none;top=0;left=0;bottom=0;right=0;points=[[0,0.5],[1,0.5]];portConstraint=eastwest;strokeColor=#EA6B66;" parent="mDtHskoxkxQPZ0tNgV-b-2" vertex="1">
          <mxGeometry y="290" width="200" height="30" as="geometry" />
        </mxCell>
        <mxCell id="mDtHskoxkxQPZ0tNgV-b-34" value="FK" style="shape=partialRectangle;connectable=0;top=0;left=0;bottom=0;right=0;editable=1;overflow=hidden;strokeColor=#b85450;fillColor=#EA6B66;" parent="mDtHskoxkxQPZ0tNgV-b-33" vertex="1">
          <mxGeometry width="30" height="30" as="geometry" />
        </mxCell>
        <mxCell id="mDtHskoxkxQPZ0tNgV-b-35" value="user_id" style="shape=partialRectangle;connectable=0;top=0;left=0;bottom=0;right=0;align=left;spacingLeft=6;overflow=hidden;strokeColor=#b85450;fillColor=#EA6B66;" parent="mDtHskoxkxQPZ0tNgV-b-33" vertex="1">
          <mxGeometry x="30" width="170" height="30" as="geometry" />
        </mxCell>
        <mxCell id="mDtHskoxkxQPZ0tNgV-b-55" value="service_services" style="shape=table;startSize=20;container=1;collapsible=1;childLayout=tableLayout;fixedRows=1;rowLines=0;fontStyle=1;align=center;resizeLast=1;" parent="1" vertex="1">
          <mxGeometry x="-20" y="630" width="220" height="240" as="geometry">
            <mxRectangle x="-20" y="640" width="110" height="20" as="alternateBounds" />
          </mxGeometry>
        </mxCell>
        <mxCell id="mDtHskoxkxQPZ0tNgV-b-56" value="" style="shape=partialRectangle;collapsible=0;dropTarget=0;pointerEvents=0;fillColor=#e1d5e7;top=0;left=0;bottom=1;right=0;points=[[0,0.5],[1,0.5]];portConstraint=eastwest;strokeColor=#9673a6;" parent="mDtHskoxkxQPZ0tNgV-b-55" vertex="1">
          <mxGeometry y="20" width="220" height="30" as="geometry" />
        </mxCell>
        <mxCell id="mDtHskoxkxQPZ0tNgV-b-57" value="PK" style="shape=partialRectangle;connectable=0;fillColor=none;top=0;left=0;bottom=0;right=0;fontStyle=1;overflow=hidden;" parent="mDtHskoxkxQPZ0tNgV-b-56" vertex="1">
          <mxGeometry width="30" height="30" as="geometry" />
        </mxCell>
        <mxCell id="mDtHskoxkxQPZ0tNgV-b-58" value="id" style="shape=partialRectangle;connectable=0;fillColor=none;top=0;left=0;bottom=0;right=0;align=left;spacingLeft=6;fontStyle=5;overflow=hidden;" parent="mDtHskoxkxQPZ0tNgV-b-56" vertex="1">
          <mxGeometry x="30" width="190" height="30" as="geometry" />
        </mxCell>
        <mxCell id="mDtHskoxkxQPZ0tNgV-b-59" value="" style="shape=partialRectangle;collapsible=0;dropTarget=0;pointerEvents=0;fillColor=none;top=0;left=0;bottom=0;right=0;points=[[0,0.5],[1,0.5]];portConstraint=eastwest;" parent="mDtHskoxkxQPZ0tNgV-b-55" vertex="1">
          <mxGeometry y="50" width="220" height="30" as="geometry" />
        </mxCell>
        <mxCell id="mDtHskoxkxQPZ0tNgV-b-60" value="" style="shape=partialRectangle;connectable=0;fillColor=none;top=0;left=0;bottom=0;right=0;editable=1;overflow=hidden;" parent="mDtHskoxkxQPZ0tNgV-b-59" vertex="1">
          <mxGeometry width="30" height="30" as="geometry" />
        </mxCell>
        <mxCell id="mDtHskoxkxQPZ0tNgV-b-61" value="status (Char Field 20)" style="shape=partialRectangle;connectable=0;fillColor=none;top=0;left=0;bottom=0;right=0;align=left;spacingLeft=6;overflow=hidden;" parent="mDtHskoxkxQPZ0tNgV-b-59" vertex="1">
          <mxGeometry x="30" width="190" height="30" as="geometry" />
        </mxCell>
        <mxCell id="mDtHskoxkxQPZ0tNgV-b-62" value="" style="shape=partialRectangle;collapsible=0;dropTarget=0;pointerEvents=0;fillColor=none;top=0;left=0;bottom=0;right=0;points=[[0,0.5],[1,0.5]];portConstraint=eastwest;" parent="mDtHskoxkxQPZ0tNgV-b-55" vertex="1">
          <mxGeometry y="80" width="220" height="30" as="geometry" />
        </mxCell>
        <mxCell id="mDtHskoxkxQPZ0tNgV-b-63" value="" style="shape=partialRectangle;connectable=0;fillColor=none;top=0;left=0;bottom=0;right=0;editable=1;overflow=hidden;" parent="mDtHskoxkxQPZ0tNgV-b-62" vertex="1">
          <mxGeometry width="30" height="30" as="geometry" />
        </mxCell>
        <mxCell id="mDtHskoxkxQPZ0tNgV-b-64" value="total_price (FloatField)" style="shape=partialRectangle;connectable=0;fillColor=none;top=0;left=0;bottom=0;right=0;align=left;spacingLeft=6;overflow=hidden;" parent="mDtHskoxkxQPZ0tNgV-b-62" vertex="1">
          <mxGeometry x="30" width="190" height="30" as="geometry" />
        </mxCell>
        <mxCell id="mDtHskoxkxQPZ0tNgV-b-65" value="" style="shape=partialRectangle;collapsible=0;dropTarget=0;pointerEvents=0;fillColor=none;top=0;left=0;bottom=0;right=0;points=[[0,0.5],[1,0.5]];portConstraint=eastwest;" parent="mDtHskoxkxQPZ0tNgV-b-55" vertex="1">
          <mxGeometry y="110" width="220" height="30" as="geometry" />
        </mxCell>
        <mxCell id="mDtHskoxkxQPZ0tNgV-b-66" value="" style="shape=partialRectangle;connectable=0;fillColor=none;top=0;left=0;bottom=0;right=0;editable=1;overflow=hidden;" parent="mDtHskoxkxQPZ0tNgV-b-65" vertex="1">
          <mxGeometry width="30" height="30" as="geometry" />
        </mxCell>
        <mxCell id="mDtHskoxkxQPZ0tNgV-b-67" value="created_on (DataTimeField)" style="shape=partialRectangle;connectable=0;fillColor=none;top=0;left=0;bottom=0;right=0;align=left;spacingLeft=6;overflow=hidden;" parent="mDtHskoxkxQPZ0tNgV-b-65" vertex="1">
          <mxGeometry x="30" width="190" height="30" as="geometry" />
        </mxCell>
        <mxCell id="mDtHskoxkxQPZ0tNgV-b-68" value="" style="shape=partialRectangle;collapsible=0;dropTarget=0;pointerEvents=0;fillColor=none;top=0;left=0;bottom=0;right=0;points=[[0,0.5],[1,0.5]];portConstraint=eastwest;" parent="mDtHskoxkxQPZ0tNgV-b-55" vertex="1">
          <mxGeometry y="140" width="220" height="30" as="geometry" />
        </mxCell>
        <mxCell id="mDtHskoxkxQPZ0tNgV-b-69" value="" style="shape=partialRectangle;connectable=0;fillColor=none;top=0;left=0;bottom=0;right=0;editable=1;overflow=hidden;" parent="mDtHskoxkxQPZ0tNgV-b-68" vertex="1">
          <mxGeometry width="30" height="30" as="geometry" />
        </mxCell>
        <mxCell id="mDtHskoxkxQPZ0tNgV-b-70" value="updated_on (DataTimeField)" style="shape=partialRectangle;connectable=0;fillColor=none;top=0;left=0;bottom=0;right=0;align=left;spacingLeft=6;overflow=hidden;" parent="mDtHskoxkxQPZ0tNgV-b-68" vertex="1">
          <mxGeometry x="30" width="190" height="30" as="geometry" />
        </mxCell>
        <mxCell id="mDtHskoxkxQPZ0tNgV-b-71" value="" style="shape=partialRectangle;collapsible=0;dropTarget=0;pointerEvents=0;fillColor=none;top=0;left=0;bottom=0;right=0;points=[[0,0.5],[1,0.5]];portConstraint=eastwest;" parent="mDtHskoxkxQPZ0tNgV-b-55" vertex="1">
          <mxGeometry y="170" width="220" height="30" as="geometry" />
        </mxCell>
        <mxCell id="mDtHskoxkxQPZ0tNgV-b-72" value="FK" style="shape=partialRectangle;connectable=0;fillColor=#ffe6cc;top=0;left=0;bottom=0;right=0;editable=1;overflow=hidden;strokeColor=#d79b00;" parent="mDtHskoxkxQPZ0tNgV-b-71" vertex="1">
          <mxGeometry width="30" height="30" as="geometry" />
        </mxCell>
        <mxCell id="mDtHskoxkxQPZ0tNgV-b-73" value="client_id" style="shape=partialRectangle;connectable=0;fillColor=#ffe6cc;top=0;left=0;bottom=0;right=0;align=left;spacingLeft=6;overflow=hidden;strokeColor=#d79b00;" parent="mDtHskoxkxQPZ0tNgV-b-71" vertex="1">
          <mxGeometry x="30" width="190" height="30" as="geometry" />
        </mxCell>
        <mxCell id="mDtHskoxkxQPZ0tNgV-b-74" value="" style="shape=partialRectangle;collapsible=0;dropTarget=0;pointerEvents=0;top=0;left=0;bottom=0;right=0;points=[[0,0.5],[1,0.5]];portConstraint=eastwest;fillColor=#EA6B66;" parent="mDtHskoxkxQPZ0tNgV-b-55" vertex="1">
          <mxGeometry y="200" width="220" height="30" as="geometry" />
        </mxCell>
        <mxCell id="mDtHskoxkxQPZ0tNgV-b-75" value="FK" style="shape=partialRectangle;connectable=0;top=0;left=0;bottom=0;right=0;editable=1;overflow=hidden;strokeColor=#d79b00;fillColor=#EA6B66;" parent="mDtHskoxkxQPZ0tNgV-b-74" vertex="1">
          <mxGeometry width="30" height="30" as="geometry" />
        </mxCell>
        <mxCell id="mDtHskoxkxQPZ0tNgV-b-76" value="user_id" style="shape=partialRectangle;connectable=0;top=0;left=0;bottom=0;right=0;align=left;spacingLeft=6;overflow=hidden;strokeColor=#d79b00;fillColor=#EA6B66;" parent="mDtHskoxkxQPZ0tNgV-b-74" vertex="1">
          <mxGeometry x="30" width="190" height="30" as="geometry" />
        </mxCell>
        <mxCell id="mDtHskoxkxQPZ0tNgV-b-77" value="clients_client" style="shape=table;startSize=30;container=1;collapsible=1;childLayout=tableLayout;fixedRows=1;rowLines=0;fontStyle=1;align=center;resizeLast=1;" parent="1" vertex="1">
          <mxGeometry x="-340" y="420" width="220" height="310" as="geometry">
            <mxRectangle x="-420" y="790" width="110" height="30" as="alternateBounds" />
          </mxGeometry>
        </mxCell>
        <mxCell id="mDtHskoxkxQPZ0tNgV-b-78" value="" style="shape=partialRectangle;collapsible=0;dropTarget=0;pointerEvents=0;fillColor=none;top=0;left=0;bottom=1;right=0;points=[[0,0.5],[1,0.5]];portConstraint=eastwest;" parent="mDtHskoxkxQPZ0tNgV-b-77" vertex="1">
          <mxGeometry y="30" width="220" height="30" as="geometry" />
        </mxCell>
        <mxCell id="mDtHskoxkxQPZ0tNgV-b-79" value="PK" style="shape=partialRectangle;connectable=0;fillColor=#ffe6cc;top=0;left=0;bottom=0;right=0;fontStyle=1;overflow=hidden;strokeColor=#d79b00;" parent="mDtHskoxkxQPZ0tNgV-b-78" vertex="1">
          <mxGeometry width="30" height="30" as="geometry" />
        </mxCell>
        <mxCell id="mDtHskoxkxQPZ0tNgV-b-80" value="id" style="shape=partialRectangle;connectable=0;fillColor=#ffe6cc;top=0;left=0;bottom=0;right=0;align=left;spacingLeft=6;fontStyle=5;overflow=hidden;strokeColor=#d79b00;" parent="mDtHskoxkxQPZ0tNgV-b-78" vertex="1">
          <mxGeometry x="30" width="190" height="30" as="geometry" />
        </mxCell>
        <mxCell id="mDtHskoxkxQPZ0tNgV-b-81" value="" style="shape=partialRectangle;collapsible=0;dropTarget=0;pointerEvents=0;fillColor=none;top=0;left=0;bottom=0;right=0;points=[[0,0.5],[1,0.5]];portConstraint=eastwest;" parent="mDtHskoxkxQPZ0tNgV-b-77" vertex="1">
          <mxGeometry y="60" width="220" height="30" as="geometry" />
        </mxCell>
        <mxCell id="mDtHskoxkxQPZ0tNgV-b-82" value="" style="shape=partialRectangle;connectable=0;fillColor=none;top=0;left=0;bottom=0;right=0;editable=1;overflow=hidden;" parent="mDtHskoxkxQPZ0tNgV-b-81" vertex="1">
          <mxGeometry width="30" height="30" as="geometry" />
        </mxCell>
        <mxCell id="mDtHskoxkxQPZ0tNgV-b-83" value="first_name (CharField 50)" style="shape=partialRectangle;connectable=0;fillColor=none;top=0;left=0;bottom=0;right=0;align=left;spacingLeft=6;overflow=hidden;" parent="mDtHskoxkxQPZ0tNgV-b-81" vertex="1">
          <mxGeometry x="30" width="190" height="30" as="geometry" />
        </mxCell>
        <mxCell id="mDtHskoxkxQPZ0tNgV-b-84" value="" style="shape=partialRectangle;collapsible=0;dropTarget=0;pointerEvents=0;fillColor=none;top=0;left=0;bottom=0;right=0;points=[[0,0.5],[1,0.5]];portConstraint=eastwest;" parent="mDtHskoxkxQPZ0tNgV-b-77" vertex="1">
          <mxGeometry y="90" width="220" height="30" as="geometry" />
        </mxCell>
        <mxCell id="mDtHskoxkxQPZ0tNgV-b-85" value="" style="shape=partialRectangle;connectable=0;fillColor=none;top=0;left=0;bottom=0;right=0;editable=1;overflow=hidden;" parent="mDtHskoxkxQPZ0tNgV-b-84" vertex="1">
          <mxGeometry width="30" height="30" as="geometry" />
        </mxCell>
        <mxCell id="mDtHskoxkxQPZ0tNgV-b-86" value="last_name (CharField 100)" style="shape=partialRectangle;connectable=0;fillColor=none;top=0;left=0;bottom=0;right=0;align=left;spacingLeft=6;overflow=hidden;" parent="mDtHskoxkxQPZ0tNgV-b-84" vertex="1">
          <mxGeometry x="30" width="190" height="30" as="geometry" />
        </mxCell>
        <mxCell id="mDtHskoxkxQPZ0tNgV-b-87" value="" style="shape=partialRectangle;collapsible=0;dropTarget=0;pointerEvents=0;fillColor=none;top=0;left=0;bottom=0;right=0;points=[[0,0.5],[1,0.5]];portConstraint=eastwest;" parent="mDtHskoxkxQPZ0tNgV-b-77" vertex="1">
          <mxGeometry y="120" width="220" height="30" as="geometry" />
        </mxCell>
        <mxCell id="mDtHskoxkxQPZ0tNgV-b-88" value="" style="shape=partialRectangle;connectable=0;fillColor=none;top=0;left=0;bottom=0;right=0;editable=1;overflow=hidden;" parent="mDtHskoxkxQPZ0tNgV-b-87" vertex="1">
          <mxGeometry width="30" height="30" as="geometry" />
        </mxCell>
        <mxCell id="mDtHskoxkxQPZ0tNgV-b-89" value="address (CharField 200)" style="shape=partialRectangle;connectable=0;fillColor=none;top=0;left=0;bottom=0;right=0;align=left;spacingLeft=6;overflow=hidden;" parent="mDtHskoxkxQPZ0tNgV-b-87" vertex="1">
          <mxGeometry x="30" width="190" height="30" as="geometry" />
        </mxCell>
        <mxCell id="mDtHskoxkxQPZ0tNgV-b-90" value="" style="shape=partialRectangle;collapsible=0;dropTarget=0;pointerEvents=0;fillColor=none;top=0;left=0;bottom=0;right=0;points=[[0,0.5],[1,0.5]];portConstraint=eastwest;" parent="mDtHskoxkxQPZ0tNgV-b-77" vertex="1">
          <mxGeometry y="150" width="220" height="30" as="geometry" />
        </mxCell>
        <mxCell id="mDtHskoxkxQPZ0tNgV-b-91" value="" style="shape=partialRectangle;connectable=0;fillColor=none;top=0;left=0;bottom=0;right=0;editable=1;overflow=hidden;" parent="mDtHskoxkxQPZ0tNgV-b-90" vertex="1">
          <mxGeometry width="30" height="30" as="geometry" />
        </mxCell>
        <mxCell id="mDtHskoxkxQPZ0tNgV-b-92" value="cellphone (CharField 20)" style="shape=partialRectangle;connectable=0;fillColor=none;top=0;left=0;bottom=0;right=0;align=left;spacingLeft=6;overflow=hidden;" parent="mDtHskoxkxQPZ0tNgV-b-90" vertex="1">
          <mxGeometry x="30" width="190" height="30" as="geometry" />
        </mxCell>
        <mxCell id="mDtHskoxkxQPZ0tNgV-b-93" value="" style="shape=partialRectangle;collapsible=0;dropTarget=0;pointerEvents=0;fillColor=none;top=0;left=0;bottom=0;right=0;points=[[0,0.5],[1,0.5]];portConstraint=eastwest;" parent="mDtHskoxkxQPZ0tNgV-b-77" vertex="1">
          <mxGeometry y="180" width="220" height="30" as="geometry" />
        </mxCell>
        <mxCell id="mDtHskoxkxQPZ0tNgV-b-94" value="" style="shape=partialRectangle;connectable=0;fillColor=none;top=0;left=0;bottom=0;right=0;editable=1;overflow=hidden;" parent="mDtHskoxkxQPZ0tNgV-b-93" vertex="1">
          <mxGeometry width="30" height="30" as="geometry" />
        </mxCell>
        <mxCell id="mDtHskoxkxQPZ0tNgV-b-95" value="email (EmailField)" style="shape=partialRectangle;connectable=0;fillColor=none;top=0;left=0;bottom=0;right=0;align=left;spacingLeft=6;overflow=hidden;" parent="mDtHskoxkxQPZ0tNgV-b-93" vertex="1">
          <mxGeometry x="30" width="190" height="30" as="geometry" />
        </mxCell>
        <mxCell id="mDtHskoxkxQPZ0tNgV-b-96" value="" style="shape=partialRectangle;collapsible=0;dropTarget=0;pointerEvents=0;fillColor=none;top=0;left=0;bottom=0;right=0;points=[[0,0.5],[1,0.5]];portConstraint=eastwest;" parent="mDtHskoxkxQPZ0tNgV-b-77" vertex="1">
          <mxGeometry y="210" width="220" height="30" as="geometry" />
        </mxCell>
        <mxCell id="mDtHskoxkxQPZ0tNgV-b-97" value="" style="shape=partialRectangle;connectable=0;fillColor=none;top=0;left=0;bottom=0;right=0;editable=1;overflow=hidden;" parent="mDtHskoxkxQPZ0tNgV-b-96" vertex="1">
          <mxGeometry width="30" height="30" as="geometry" />
        </mxCell>
        <mxCell id="mDtHskoxkxQPZ0tNgV-b-98" value="gender (CharField 2)" style="shape=partialRectangle;connectable=0;fillColor=none;top=0;left=0;bottom=0;right=0;align=left;spacingLeft=6;overflow=hidden;" parent="mDtHskoxkxQPZ0tNgV-b-96" vertex="1">
          <mxGeometry x="30" width="190" height="30" as="geometry" />
        </mxCell>
        <mxCell id="mDtHskoxkxQPZ0tNgV-b-99" value="" style="shape=partialRectangle;collapsible=0;dropTarget=0;pointerEvents=0;fillColor=none;top=0;left=0;bottom=0;right=0;points=[[0,0.5],[1,0.5]];portConstraint=eastwest;" parent="mDtHskoxkxQPZ0tNgV-b-77" vertex="1">
          <mxGeometry y="240" width="220" height="30" as="geometry" />
        </mxCell>
        <mxCell id="mDtHskoxkxQPZ0tNgV-b-100" value="" style="shape=partialRectangle;connectable=0;fillColor=none;top=0;left=0;bottom=0;right=0;editable=1;overflow=hidden;" parent="mDtHskoxkxQPZ0tNgV-b-99" vertex="1">
          <mxGeometry width="30" height="30" as="geometry" />
        </mxCell>
        <mxCell id="mDtHskoxkxQPZ0tNgV-b-101" value="created_on (DataTimeField)" style="shape=partialRectangle;connectable=0;fillColor=none;top=0;left=0;bottom=0;right=0;align=left;spacingLeft=6;overflow=hidden;" parent="mDtHskoxkxQPZ0tNgV-b-99" vertex="1">
          <mxGeometry x="30" width="190" height="30" as="geometry" />
        </mxCell>
        <mxCell id="mDtHskoxkxQPZ0tNgV-b-102" value="" style="shape=partialRectangle;collapsible=0;dropTarget=0;pointerEvents=0;fillColor=none;top=0;left=0;bottom=0;right=0;points=[[0,0.5],[1,0.5]];portConstraint=eastwest;" parent="mDtHskoxkxQPZ0tNgV-b-77" vertex="1">
          <mxGeometry y="270" width="220" height="30" as="geometry" />
        </mxCell>
        <mxCell id="mDtHskoxkxQPZ0tNgV-b-103" value="" style="shape=partialRectangle;connectable=0;fillColor=none;top=0;left=0;bottom=0;right=0;editable=1;overflow=hidden;" parent="mDtHskoxkxQPZ0tNgV-b-102" vertex="1">
          <mxGeometry width="30" height="30" as="geometry" />
        </mxCell>
        <mxCell id="mDtHskoxkxQPZ0tNgV-b-104" value="updated_on (DataTimeField)" style="shape=partialRectangle;connectable=0;fillColor=none;top=0;left=0;bottom=0;right=0;align=left;spacingLeft=6;overflow=hidden;" parent="mDtHskoxkxQPZ0tNgV-b-102" vertex="1">
          <mxGeometry x="30" width="190" height="30" as="geometry" />
        </mxCell>
        <mxCell id="mDtHskoxkxQPZ0tNgV-b-111" value="n : 1" style="text;html=1;align=center;verticalAlign=middle;resizable=0;points=[];autosize=1;strokeColor=none;" parent="1" vertex="1">
          <mxGeometry x="1399" y="860" width="40" height="20" as="geometry" />
        </mxCell>
        <mxCell id="mDtHskoxkxQPZ0tNgV-b-152" value="service_servicesmedicines" style="shape=table;startSize=20;container=1;collapsible=1;childLayout=tableLayout;fixedRows=1;rowLines=0;fontStyle=1;align=center;resizeLast=1;" parent="1" vertex="1">
          <mxGeometry x="330" y="630" width="207" height="240" as="geometry">
            <mxRectangle x="-40" y="930" width="130" height="20" as="alternateBounds" />
          </mxGeometry>
        </mxCell>
        <mxCell id="mDtHskoxkxQPZ0tNgV-b-153" value="" style="shape=partialRectangle;collapsible=0;dropTarget=0;pointerEvents=0;fillColor=none;top=0;left=0;bottom=1;right=0;points=[[0,0.5],[1,0.5]];portConstraint=eastwest;" parent="mDtHskoxkxQPZ0tNgV-b-152" vertex="1">
          <mxGeometry y="20" width="207" height="30" as="geometry" />
        </mxCell>
        <mxCell id="mDtHskoxkxQPZ0tNgV-b-154" value="PK" style="shape=partialRectangle;connectable=0;fillColor=none;top=0;left=0;bottom=0;right=0;fontStyle=1;overflow=hidden;" parent="mDtHskoxkxQPZ0tNgV-b-153" vertex="1">
          <mxGeometry width="30" height="30" as="geometry" />
        </mxCell>
        <mxCell id="mDtHskoxkxQPZ0tNgV-b-155" value="id" style="shape=partialRectangle;connectable=0;fillColor=none;top=0;left=0;bottom=0;right=0;align=left;spacingLeft=6;fontStyle=5;overflow=hidden;" parent="mDtHskoxkxQPZ0tNgV-b-153" vertex="1">
          <mxGeometry x="30" width="177" height="30" as="geometry" />
        </mxCell>
        <mxCell id="mDtHskoxkxQPZ0tNgV-b-156" value="" style="shape=partialRectangle;collapsible=0;dropTarget=0;pointerEvents=0;fillColor=none;top=0;left=0;bottom=0;right=0;points=[[0,0.5],[1,0.5]];portConstraint=eastwest;" parent="mDtHskoxkxQPZ0tNgV-b-152" vertex="1">
          <mxGeometry y="50" width="207" height="30" as="geometry" />
        </mxCell>
        <mxCell id="mDtHskoxkxQPZ0tNgV-b-157" value="" style="shape=partialRectangle;connectable=0;fillColor=none;top=0;left=0;bottom=0;right=0;editable=1;overflow=hidden;" parent="mDtHskoxkxQPZ0tNgV-b-156" vertex="1">
          <mxGeometry width="30" height="30" as="geometry" />
        </mxCell>
        <mxCell id="mDtHskoxkxQPZ0tNgV-b-158" value="unitary_price (FloatField)" style="shape=partialRectangle;connectable=0;fillColor=none;top=0;left=0;bottom=0;right=0;align=left;spacingLeft=6;overflow=hidden;" parent="mDtHskoxkxQPZ0tNgV-b-156" vertex="1">
          <mxGeometry x="30" width="177" height="30" as="geometry" />
        </mxCell>
        <mxCell id="mDtHskoxkxQPZ0tNgV-b-159" value="" style="shape=partialRectangle;collapsible=0;dropTarget=0;pointerEvents=0;fillColor=none;top=0;left=0;bottom=0;right=0;points=[[0,0.5],[1,0.5]];portConstraint=eastwest;" parent="mDtHskoxkxQPZ0tNgV-b-152" vertex="1">
          <mxGeometry y="80" width="207" height="30" as="geometry" />
        </mxCell>
        <mxCell id="mDtHskoxkxQPZ0tNgV-b-160" value="" style="shape=partialRectangle;connectable=0;fillColor=none;top=0;left=0;bottom=0;right=0;editable=1;overflow=hidden;" parent="mDtHskoxkxQPZ0tNgV-b-159" vertex="1">
          <mxGeometry width="30" height="30" as="geometry" />
        </mxCell>
        <mxCell id="mDtHskoxkxQPZ0tNgV-b-161" value="quantity (IntegerField)" style="shape=partialRectangle;connectable=0;fillColor=none;top=0;left=0;bottom=0;right=0;align=left;spacingLeft=6;overflow=hidden;" parent="mDtHskoxkxQPZ0tNgV-b-159" vertex="1">
          <mxGeometry x="30" width="177" height="30" as="geometry" />
        </mxCell>
        <mxCell id="mDtHskoxkxQPZ0tNgV-b-162" value="" style="shape=partialRectangle;collapsible=0;dropTarget=0;pointerEvents=0;fillColor=none;top=0;left=0;bottom=0;right=0;points=[[0,0.5],[1,0.5]];portConstraint=eastwest;" parent="mDtHskoxkxQPZ0tNgV-b-152" vertex="1">
          <mxGeometry y="110" width="207" height="30" as="geometry" />
        </mxCell>
        <mxCell id="mDtHskoxkxQPZ0tNgV-b-163" value="" style="shape=partialRectangle;connectable=0;fillColor=none;top=0;left=0;bottom=0;right=0;editable=1;overflow=hidden;" parent="mDtHskoxkxQPZ0tNgV-b-162" vertex="1">
          <mxGeometry width="30" height="30" as="geometry" />
        </mxCell>
        <mxCell id="mDtHskoxkxQPZ0tNgV-b-164" value="created_on (DataTimeField)" style="shape=partialRectangle;connectable=0;fillColor=none;top=0;left=0;bottom=0;right=0;align=left;spacingLeft=6;overflow=hidden;" parent="mDtHskoxkxQPZ0tNgV-b-162" vertex="1">
          <mxGeometry x="30" width="177" height="30" as="geometry" />
        </mxCell>
        <mxCell id="mDtHskoxkxQPZ0tNgV-b-165" value="" style="shape=partialRectangle;collapsible=0;dropTarget=0;pointerEvents=0;fillColor=none;top=0;left=0;bottom=0;right=0;points=[[0,0.5],[1,0.5]];portConstraint=eastwest;" parent="mDtHskoxkxQPZ0tNgV-b-152" vertex="1">
          <mxGeometry y="140" width="207" height="30" as="geometry" />
        </mxCell>
        <mxCell id="mDtHskoxkxQPZ0tNgV-b-166" value="" style="shape=partialRectangle;connectable=0;fillColor=none;top=0;left=0;bottom=0;right=0;editable=1;overflow=hidden;" parent="mDtHskoxkxQPZ0tNgV-b-165" vertex="1">
          <mxGeometry width="30" height="30" as="geometry" />
        </mxCell>
        <mxCell id="mDtHskoxkxQPZ0tNgV-b-167" value="updated_on (DataTimeField)" style="shape=partialRectangle;connectable=0;fillColor=none;top=0;left=0;bottom=0;right=0;align=left;spacingLeft=6;overflow=hidden;" parent="mDtHskoxkxQPZ0tNgV-b-165" vertex="1">
          <mxGeometry x="30" width="177" height="30" as="geometry" />
        </mxCell>
        <mxCell id="mDtHskoxkxQPZ0tNgV-b-168" value="" style="shape=partialRectangle;collapsible=0;dropTarget=0;pointerEvents=0;fillColor=#e1d5e7;top=0;left=0;bottom=0;right=0;points=[[0,0.5],[1,0.5]];portConstraint=eastwest;strokeColor=#9673A6;" parent="mDtHskoxkxQPZ0tNgV-b-152" vertex="1">
          <mxGeometry y="170" width="207" height="30" as="geometry" />
        </mxCell>
        <mxCell id="mDtHskoxkxQPZ0tNgV-b-169" value="FK" style="shape=partialRectangle;connectable=0;fillColor=#e1d5e7;top=0;left=0;bottom=0;right=0;editable=1;overflow=hidden;strokeColor=#9673a6;" parent="mDtHskoxkxQPZ0tNgV-b-168" vertex="1">
          <mxGeometry width="30" height="30" as="geometry" />
        </mxCell>
        <mxCell id="mDtHskoxkxQPZ0tNgV-b-170" value="order_id" style="shape=partialRectangle;connectable=0;fillColor=#e1d5e7;top=0;left=0;bottom=0;right=0;align=left;spacingLeft=6;overflow=hidden;strokeColor=#9673a6;" parent="mDtHskoxkxQPZ0tNgV-b-168" vertex="1">
          <mxGeometry x="30" width="177" height="30" as="geometry" />
        </mxCell>
        <mxCell id="mDtHskoxkxQPZ0tNgV-b-171" value="" style="shape=partialRectangle;collapsible=0;dropTarget=0;pointerEvents=0;fillColor=none;top=0;left=0;bottom=0;right=0;points=[[0,0.5],[1,0.5]];portConstraint=eastwest;" parent="mDtHskoxkxQPZ0tNgV-b-152" vertex="1">
          <mxGeometry y="200" width="207" height="30" as="geometry" />
        </mxCell>
        <mxCell id="mDtHskoxkxQPZ0tNgV-b-172" value="FK" style="shape=partialRectangle;connectable=0;fillColor=#dae8fc;top=0;left=0;bottom=0;right=0;editable=1;overflow=hidden;strokeColor=#6c8ebf;" parent="mDtHskoxkxQPZ0tNgV-b-171" vertex="1">
          <mxGeometry width="30" height="30" as="geometry" />
        </mxCell>
        <mxCell id="mDtHskoxkxQPZ0tNgV-b-173" value="product_id" style="shape=partialRectangle;connectable=0;fillColor=#dae8fc;top=0;left=0;bottom=0;right=0;align=left;spacingLeft=6;overflow=hidden;strokeColor=#6c8ebf;" parent="mDtHskoxkxQPZ0tNgV-b-171" vertex="1">
          <mxGeometry x="30" width="177" height="30" as="geometry" />
        </mxCell>
        <mxCell id="mDtHskoxkxQPZ0tNgV-b-182" value="auth_user(employe_employers)" style="shape=table;startSize=30;container=1;collapsible=1;childLayout=tableLayout;fixedRows=1;rowLines=0;fontStyle=1;align=center;resizeLast=1;fillColor=#f5f5f5;strokeColor=#666666;fontColor=#333333;" parent="1" vertex="1">
          <mxGeometry x="-20" y="220" width="220" height="370" as="geometry">
            <mxRectangle x="10" y="260" width="90" height="30" as="alternateBounds" />
          </mxGeometry>
        </mxCell>
        <mxCell id="mDtHskoxkxQPZ0tNgV-b-183" value="" style="shape=partialRectangle;collapsible=0;dropTarget=0;pointerEvents=0;top=0;left=0;bottom=1;right=0;points=[[0,0.5],[1,0.5]];portConstraint=eastwest;strokeColor=#666666;fontColor=#333333;fillColor=#EA6B66;" parent="mDtHskoxkxQPZ0tNgV-b-182" vertex="1">
          <mxGeometry y="30" width="220" height="30" as="geometry" />
        </mxCell>
        <mxCell id="mDtHskoxkxQPZ0tNgV-b-184" value="PK" style="shape=partialRectangle;connectable=0;top=0;left=0;bottom=0;right=0;fontStyle=1;overflow=hidden;strokeColor=#666666;fontColor=#333333;fillColor=#EA6B66;" parent="mDtHskoxkxQPZ0tNgV-b-183" vertex="1">
          <mxGeometry width="30" height="30" as="geometry" />
        </mxCell>
        <mxCell id="mDtHskoxkxQPZ0tNgV-b-185" value="id" style="shape=partialRectangle;connectable=0;top=0;left=0;bottom=0;right=0;align=left;spacingLeft=6;fontStyle=5;overflow=hidden;strokeColor=#666666;fontColor=#333333;fillColor=#EA6B66;" parent="mDtHskoxkxQPZ0tNgV-b-183" vertex="1">
          <mxGeometry x="30" width="190" height="30" as="geometry" />
        </mxCell>
        <mxCell id="mDtHskoxkxQPZ0tNgV-b-186" value="" style="shape=partialRectangle;collapsible=0;dropTarget=0;pointerEvents=0;fillColor=none;top=0;left=0;bottom=0;right=0;points=[[0,0.5],[1,0.5]];portConstraint=eastwest;" parent="mDtHskoxkxQPZ0tNgV-b-182" vertex="1">
          <mxGeometry y="60" width="220" height="30" as="geometry" />
        </mxCell>
        <mxCell id="mDtHskoxkxQPZ0tNgV-b-187" value="" style="shape=partialRectangle;connectable=0;fillColor=none;top=0;left=0;bottom=0;right=0;editable=1;overflow=hidden;" parent="mDtHskoxkxQPZ0tNgV-b-186" vertex="1">
          <mxGeometry width="30" height="30" as="geometry" />
        </mxCell>
        <mxCell id="mDtHskoxkxQPZ0tNgV-b-188" value="password" style="shape=partialRectangle;connectable=0;fillColor=none;top=0;left=0;bottom=0;right=0;align=left;spacingLeft=6;overflow=hidden;" parent="mDtHskoxkxQPZ0tNgV-b-186" vertex="1">
          <mxGeometry x="30" width="190" height="30" as="geometry" />
        </mxCell>
        <mxCell id="mDtHskoxkxQPZ0tNgV-b-189" value="" style="shape=partialRectangle;collapsible=0;dropTarget=0;pointerEvents=0;fillColor=none;top=0;left=0;bottom=0;right=0;points=[[0,0.5],[1,0.5]];portConstraint=eastwest;" parent="mDtHskoxkxQPZ0tNgV-b-182" vertex="1">
          <mxGeometry y="90" width="220" height="30" as="geometry" />
        </mxCell>
        <mxCell id="mDtHskoxkxQPZ0tNgV-b-190" value="" style="shape=partialRectangle;connectable=0;fillColor=none;top=0;left=0;bottom=0;right=0;editable=1;overflow=hidden;" parent="mDtHskoxkxQPZ0tNgV-b-189" vertex="1">
          <mxGeometry width="30" height="30" as="geometry" />
        </mxCell>
        <mxCell id="mDtHskoxkxQPZ0tNgV-b-191" value="last_login" style="shape=partialRectangle;connectable=0;fillColor=none;top=0;left=0;bottom=0;right=0;align=left;spacingLeft=6;overflow=hidden;" parent="mDtHskoxkxQPZ0tNgV-b-189" vertex="1">
          <mxGeometry x="30" width="190" height="30" as="geometry" />
        </mxCell>
        <mxCell id="mDtHskoxkxQPZ0tNgV-b-192" value="" style="shape=partialRectangle;collapsible=0;dropTarget=0;pointerEvents=0;fillColor=none;top=0;left=0;bottom=0;right=0;points=[[0,0.5],[1,0.5]];portConstraint=eastwest;" parent="mDtHskoxkxQPZ0tNgV-b-182" vertex="1">
          <mxGeometry y="120" width="220" height="30" as="geometry" />
        </mxCell>
        <mxCell id="mDtHskoxkxQPZ0tNgV-b-193" value="" style="shape=partialRectangle;connectable=0;fillColor=none;top=0;left=0;bottom=0;right=0;editable=1;overflow=hidden;" parent="mDtHskoxkxQPZ0tNgV-b-192" vertex="1">
          <mxGeometry width="30" height="30" as="geometry" />
        </mxCell>
        <mxCell id="mDtHskoxkxQPZ0tNgV-b-194" value="id_superuser" style="shape=partialRectangle;connectable=0;fillColor=none;top=0;left=0;bottom=0;right=0;align=left;spacingLeft=6;overflow=hidden;" parent="mDtHskoxkxQPZ0tNgV-b-192" vertex="1">
          <mxGeometry x="30" width="190" height="30" as="geometry" />
        </mxCell>
        <mxCell id="mDtHskoxkxQPZ0tNgV-b-195" value="" style="shape=partialRectangle;collapsible=0;dropTarget=0;pointerEvents=0;fillColor=none;top=0;left=0;bottom=0;right=0;points=[[0,0.5],[1,0.5]];portConstraint=eastwest;" parent="mDtHskoxkxQPZ0tNgV-b-182" vertex="1">
          <mxGeometry y="150" width="220" height="30" as="geometry" />
        </mxCell>
        <mxCell id="mDtHskoxkxQPZ0tNgV-b-196" value="" style="shape=partialRectangle;connectable=0;fillColor=none;top=0;left=0;bottom=0;right=0;editable=1;overflow=hidden;" parent="mDtHskoxkxQPZ0tNgV-b-195" vertex="1">
          <mxGeometry width="30" height="30" as="geometry" />
        </mxCell>
        <mxCell id="mDtHskoxkxQPZ0tNgV-b-197" value="username" style="shape=partialRectangle;connectable=0;fillColor=none;top=0;left=0;bottom=0;right=0;align=left;spacingLeft=6;overflow=hidden;" parent="mDtHskoxkxQPZ0tNgV-b-195" vertex="1">
          <mxGeometry x="30" width="190" height="30" as="geometry" />
        </mxCell>
        <mxCell id="mDtHskoxkxQPZ0tNgV-b-198" value="" style="shape=partialRectangle;collapsible=0;dropTarget=0;pointerEvents=0;fillColor=none;top=0;left=0;bottom=0;right=0;points=[[0,0.5],[1,0.5]];portConstraint=eastwest;" parent="mDtHskoxkxQPZ0tNgV-b-182" vertex="1">
          <mxGeometry y="180" width="220" height="30" as="geometry" />
        </mxCell>
        <mxCell id="mDtHskoxkxQPZ0tNgV-b-199" value="" style="shape=partialRectangle;connectable=0;fillColor=none;top=0;left=0;bottom=0;right=0;editable=1;overflow=hidden;" parent="mDtHskoxkxQPZ0tNgV-b-198" vertex="1">
          <mxGeometry width="30" height="30" as="geometry" />
        </mxCell>
        <mxCell id="mDtHskoxkxQPZ0tNgV-b-200" value="first_name" style="shape=partialRectangle;connectable=0;fillColor=none;top=0;left=0;bottom=0;right=0;align=left;spacingLeft=6;overflow=hidden;" parent="mDtHskoxkxQPZ0tNgV-b-198" vertex="1">
          <mxGeometry x="30" width="190" height="30" as="geometry" />
        </mxCell>
        <mxCell id="mDtHskoxkxQPZ0tNgV-b-201" value="" style="shape=partialRectangle;collapsible=0;dropTarget=0;pointerEvents=0;fillColor=none;top=0;left=0;bottom=0;right=0;points=[[0,0.5],[1,0.5]];portConstraint=eastwest;" parent="mDtHskoxkxQPZ0tNgV-b-182" vertex="1">
          <mxGeometry y="210" width="220" height="30" as="geometry" />
        </mxCell>
        <mxCell id="mDtHskoxkxQPZ0tNgV-b-202" value="" style="shape=partialRectangle;connectable=0;fillColor=none;top=0;left=0;bottom=0;right=0;editable=1;overflow=hidden;" parent="mDtHskoxkxQPZ0tNgV-b-201" vertex="1">
          <mxGeometry width="30" height="30" as="geometry" />
        </mxCell>
        <mxCell id="mDtHskoxkxQPZ0tNgV-b-203" value="last_name" style="shape=partialRectangle;connectable=0;fillColor=none;top=0;left=0;bottom=0;right=0;align=left;spacingLeft=6;overflow=hidden;" parent="mDtHskoxkxQPZ0tNgV-b-201" vertex="1">
          <mxGeometry x="30" width="190" height="30" as="geometry" />
        </mxCell>
        <mxCell id="mDtHskoxkxQPZ0tNgV-b-204" value="" style="shape=partialRectangle;collapsible=0;dropTarget=0;pointerEvents=0;fillColor=none;top=0;left=0;bottom=0;right=0;points=[[0,0.5],[1,0.5]];portConstraint=eastwest;" parent="mDtHskoxkxQPZ0tNgV-b-182" vertex="1">
          <mxGeometry y="240" width="220" height="30" as="geometry" />
        </mxCell>
        <mxCell id="mDtHskoxkxQPZ0tNgV-b-205" value="" style="shape=partialRectangle;connectable=0;fillColor=none;top=0;left=0;bottom=0;right=0;editable=1;overflow=hidden;" parent="mDtHskoxkxQPZ0tNgV-b-204" vertex="1">
          <mxGeometry width="30" height="30" as="geometry" />
        </mxCell>
        <mxCell id="mDtHskoxkxQPZ0tNgV-b-206" value="email" style="shape=partialRectangle;connectable=0;fillColor=none;top=0;left=0;bottom=0;right=0;align=left;spacingLeft=6;overflow=hidden;" parent="mDtHskoxkxQPZ0tNgV-b-204" vertex="1">
          <mxGeometry x="30" width="190" height="30" as="geometry" />
        </mxCell>
        <mxCell id="mDtHskoxkxQPZ0tNgV-b-207" value="" style="shape=partialRectangle;collapsible=0;dropTarget=0;pointerEvents=0;fillColor=none;top=0;left=0;bottom=0;right=0;points=[[0,0.5],[1,0.5]];portConstraint=eastwest;" parent="mDtHskoxkxQPZ0tNgV-b-182" vertex="1">
          <mxGeometry y="270" width="220" height="30" as="geometry" />
        </mxCell>
        <mxCell id="mDtHskoxkxQPZ0tNgV-b-208" value="" style="shape=partialRectangle;connectable=0;fillColor=none;top=0;left=0;bottom=0;right=0;editable=1;overflow=hidden;" parent="mDtHskoxkxQPZ0tNgV-b-207" vertex="1">
          <mxGeometry width="30" height="30" as="geometry" />
        </mxCell>
        <mxCell id="mDtHskoxkxQPZ0tNgV-b-209" value="is_staff" style="shape=partialRectangle;connectable=0;fillColor=none;top=0;left=0;bottom=0;right=0;align=left;spacingLeft=6;overflow=hidden;" parent="mDtHskoxkxQPZ0tNgV-b-207" vertex="1">
          <mxGeometry x="30" width="190" height="30" as="geometry" />
        </mxCell>
        <mxCell id="mDtHskoxkxQPZ0tNgV-b-210" value="" style="shape=partialRectangle;collapsible=0;dropTarget=0;pointerEvents=0;fillColor=none;top=0;left=0;bottom=0;right=0;points=[[0,0.5],[1,0.5]];portConstraint=eastwest;" parent="mDtHskoxkxQPZ0tNgV-b-182" vertex="1">
          <mxGeometry y="300" width="220" height="30" as="geometry" />
        </mxCell>
        <mxCell id="mDtHskoxkxQPZ0tNgV-b-211" value="" style="shape=partialRectangle;connectable=0;fillColor=none;top=0;left=0;bottom=0;right=0;editable=1;overflow=hidden;" parent="mDtHskoxkxQPZ0tNgV-b-210" vertex="1">
          <mxGeometry width="30" height="30" as="geometry" />
        </mxCell>
        <mxCell id="mDtHskoxkxQPZ0tNgV-b-212" value="is_active" style="shape=partialRectangle;connectable=0;fillColor=none;top=0;left=0;bottom=0;right=0;align=left;spacingLeft=6;overflow=hidden;" parent="mDtHskoxkxQPZ0tNgV-b-210" vertex="1">
          <mxGeometry x="30" width="190" height="30" as="geometry" />
        </mxCell>
        <mxCell id="mDtHskoxkxQPZ0tNgV-b-213" value="" style="shape=partialRectangle;collapsible=0;dropTarget=0;pointerEvents=0;fillColor=none;top=0;left=0;bottom=0;right=0;points=[[0,0.5],[1,0.5]];portConstraint=eastwest;" parent="mDtHskoxkxQPZ0tNgV-b-182" vertex="1">
          <mxGeometry y="330" width="220" height="30" as="geometry" />
        </mxCell>
        <mxCell id="mDtHskoxkxQPZ0tNgV-b-214" value="" style="shape=partialRectangle;connectable=0;fillColor=none;top=0;left=0;bottom=0;right=0;editable=1;overflow=hidden;" parent="mDtHskoxkxQPZ0tNgV-b-213" vertex="1">
          <mxGeometry width="30" height="30" as="geometry" />
        </mxCell>
        <mxCell id="mDtHskoxkxQPZ0tNgV-b-215" value="date_joined" style="shape=partialRectangle;connectable=0;fillColor=none;top=0;left=0;bottom=0;right=0;align=left;spacingLeft=6;overflow=hidden;" parent="mDtHskoxkxQPZ0tNgV-b-213" vertex="1">
          <mxGeometry x="30" width="190" height="30" as="geometry" />
        </mxCell>
        <mxCell id="mDtHskoxkxQPZ0tNgV-b-225" value="1 : 1" style="text;html=1;align=center;verticalAlign=middle;resizable=0;points=[];autosize=1;strokeColor=none;" parent="1" vertex="1">
          <mxGeometry x="1670" y="890" width="40" height="20" as="geometry" />
        </mxCell>
        <mxCell id="mDtHskoxkxQPZ0tNgV-b-226" value="1 : 1" style="text;html=1;align=center;verticalAlign=middle;resizable=0;points=[];autosize=1;strokeColor=none;" parent="1" vertex="1">
          <mxGeometry x="1200" y="940" width="40" height="20" as="geometry" />
        </mxCell>
        <mxCell id="mDtHskoxkxQPZ0tNgV-b-234" value="pets_pet" style="shape=table;startSize=30;container=1;collapsible=1;childLayout=tableLayout;fixedRows=1;rowLines=0;fontStyle=1;align=center;resizeLast=1;" parent="1" vertex="1">
          <mxGeometry x="-340" y="800" width="220" height="310" as="geometry">
            <mxRectangle x="-420" y="790" width="110" height="30" as="alternateBounds" />
          </mxGeometry>
        </mxCell>
        <mxCell id="mDtHskoxkxQPZ0tNgV-b-235" value="" style="shape=partialRectangle;collapsible=0;dropTarget=0;pointerEvents=0;fillColor=none;top=0;left=0;bottom=1;right=0;points=[[0,0.5],[1,0.5]];portConstraint=eastwest;" parent="mDtHskoxkxQPZ0tNgV-b-234" vertex="1">
          <mxGeometry y="30" width="220" height="30" as="geometry" />
        </mxCell>
        <mxCell id="mDtHskoxkxQPZ0tNgV-b-236" value="PK" style="shape=partialRectangle;connectable=0;fillColor=#e1d5e7;top=0;left=0;bottom=0;right=0;fontStyle=1;overflow=hidden;strokeColor=#9673a6;" parent="mDtHskoxkxQPZ0tNgV-b-235" vertex="1">
          <mxGeometry width="30" height="30" as="geometry" />
        </mxCell>
        <mxCell id="mDtHskoxkxQPZ0tNgV-b-237" value="id" style="shape=partialRectangle;connectable=0;fillColor=#e1d5e7;top=0;left=0;bottom=0;right=0;align=left;spacingLeft=6;fontStyle=5;overflow=hidden;strokeColor=#9673a6;" parent="mDtHskoxkxQPZ0tNgV-b-235" vertex="1">
          <mxGeometry x="30" width="190" height="30" as="geometry" />
        </mxCell>
        <mxCell id="mDtHskoxkxQPZ0tNgV-b-238" value="" style="shape=partialRectangle;collapsible=0;dropTarget=0;pointerEvents=0;fillColor=none;top=0;left=0;bottom=0;right=0;points=[[0,0.5],[1,0.5]];portConstraint=eastwest;" parent="mDtHskoxkxQPZ0tNgV-b-234" vertex="1">
          <mxGeometry y="60" width="220" height="30" as="geometry" />
        </mxCell>
        <mxCell id="mDtHskoxkxQPZ0tNgV-b-239" value="" style="shape=partialRectangle;connectable=0;fillColor=none;top=0;left=0;bottom=0;right=0;editable=1;overflow=hidden;" parent="mDtHskoxkxQPZ0tNgV-b-238" vertex="1">
          <mxGeometry width="30" height="30" as="geometry" />
        </mxCell>
        <mxCell id="mDtHskoxkxQPZ0tNgV-b-240" value="first_name (CharField 50)" style="shape=partialRectangle;connectable=0;fillColor=none;top=0;left=0;bottom=0;right=0;align=left;spacingLeft=6;overflow=hidden;" parent="mDtHskoxkxQPZ0tNgV-b-238" vertex="1">
          <mxGeometry x="30" width="190" height="30" as="geometry" />
        </mxCell>
        <mxCell id="mDtHskoxkxQPZ0tNgV-b-241" value="" style="shape=partialRectangle;collapsible=0;dropTarget=0;pointerEvents=0;fillColor=none;top=0;left=0;bottom=0;right=0;points=[[0,0.5],[1,0.5]];portConstraint=eastwest;" parent="mDtHskoxkxQPZ0tNgV-b-234" vertex="1">
          <mxGeometry y="90" width="220" height="30" as="geometry" />
        </mxCell>
        <mxCell id="mDtHskoxkxQPZ0tNgV-b-242" value="" style="shape=partialRectangle;connectable=0;fillColor=none;top=0;left=0;bottom=0;right=0;editable=1;overflow=hidden;" parent="mDtHskoxkxQPZ0tNgV-b-241" vertex="1">
          <mxGeometry width="30" height="30" as="geometry" />
        </mxCell>
        <mxCell id="mDtHskoxkxQPZ0tNgV-b-243" value="last_name (CharField 100)" style="shape=partialRectangle;connectable=0;fillColor=none;top=0;left=0;bottom=0;right=0;align=left;spacingLeft=6;overflow=hidden;" parent="mDtHskoxkxQPZ0tNgV-b-241" vertex="1">
          <mxGeometry x="30" width="190" height="30" as="geometry" />
        </mxCell>
        <mxCell id="mDtHskoxkxQPZ0tNgV-b-368" value="" style="shape=partialRectangle;collapsible=0;dropTarget=0;pointerEvents=0;fillColor=none;top=0;left=0;bottom=0;right=0;points=[[0,0.5],[1,0.5]];portConstraint=eastwest;strokeColor=#82b366;align=center;verticalAlign=middle;" parent="mDtHskoxkxQPZ0tNgV-b-234" vertex="1">
          <mxGeometry y="120" width="220" height="30" as="geometry" />
        </mxCell>
        <mxCell id="mDtHskoxkxQPZ0tNgV-b-369" value="" style="shape=partialRectangle;connectable=0;fillColor=none;top=0;left=0;bottom=0;right=0;editable=1;overflow=hidden;" parent="mDtHskoxkxQPZ0tNgV-b-368" vertex="1">
          <mxGeometry width="30" height="30" as="geometry" />
        </mxCell>
        <mxCell id="mDtHskoxkxQPZ0tNgV-b-370" value="photo (ImageField)" style="shape=partialRectangle;connectable=0;fillColor=none;top=0;left=0;bottom=0;right=0;align=left;spacingLeft=6;overflow=hidden;" parent="mDtHskoxkxQPZ0tNgV-b-368" vertex="1">
          <mxGeometry x="30" width="190" height="30" as="geometry" />
        </mxCell>
        <mxCell id="mDtHskoxkxQPZ0tNgV-b-253" value="" style="shape=partialRectangle;collapsible=0;dropTarget=0;pointerEvents=0;fillColor=none;top=0;left=0;bottom=0;right=0;points=[[0,0.5],[1,0.5]];portConstraint=eastwest;" parent="mDtHskoxkxQPZ0tNgV-b-234" vertex="1">
          <mxGeometry y="150" width="220" height="30" as="geometry" />
        </mxCell>
        <mxCell id="mDtHskoxkxQPZ0tNgV-b-254" value="" style="shape=partialRectangle;connectable=0;fillColor=none;top=0;left=0;bottom=0;right=0;editable=1;overflow=hidden;" parent="mDtHskoxkxQPZ0tNgV-b-253" vertex="1">
          <mxGeometry width="30" height="30" as="geometry" />
        </mxCell>
        <mxCell id="mDtHskoxkxQPZ0tNgV-b-255" value="gender (CharField 2)" style="shape=partialRectangle;connectable=0;fillColor=none;top=0;left=0;bottom=0;right=0;align=left;spacingLeft=6;overflow=hidden;" parent="mDtHskoxkxQPZ0tNgV-b-253" vertex="1">
          <mxGeometry x="30" width="190" height="30" as="geometry" />
        </mxCell>
        <mxCell id="mDtHskoxkxQPZ0tNgV-b-256" value="" style="shape=partialRectangle;collapsible=0;dropTarget=0;pointerEvents=0;fillColor=none;top=0;left=0;bottom=0;right=0;points=[[0,0.5],[1,0.5]];portConstraint=eastwest;" parent="mDtHskoxkxQPZ0tNgV-b-234" vertex="1">
          <mxGeometry y="180" width="220" height="30" as="geometry" />
        </mxCell>
        <mxCell id="mDtHskoxkxQPZ0tNgV-b-257" value="" style="shape=partialRectangle;connectable=0;fillColor=none;top=0;left=0;bottom=0;right=0;editable=1;overflow=hidden;" parent="mDtHskoxkxQPZ0tNgV-b-256" vertex="1">
          <mxGeometry width="30" height="30" as="geometry" />
        </mxCell>
        <mxCell id="mDtHskoxkxQPZ0tNgV-b-258" value="created_on (DataTimeField)" style="shape=partialRectangle;connectable=0;fillColor=none;top=0;left=0;bottom=0;right=0;align=left;spacingLeft=6;overflow=hidden;" parent="mDtHskoxkxQPZ0tNgV-b-256" vertex="1">
          <mxGeometry x="30" width="190" height="30" as="geometry" />
        </mxCell>
        <mxCell id="mDtHskoxkxQPZ0tNgV-b-262" value="" style="shape=partialRectangle;collapsible=0;dropTarget=0;pointerEvents=0;fillColor=none;top=0;left=0;bottom=0;right=0;points=[[0,0.5],[1,0.5]];portConstraint=eastwest;" parent="mDtHskoxkxQPZ0tNgV-b-234" vertex="1">
          <mxGeometry y="210" width="220" height="30" as="geometry" />
        </mxCell>
        <mxCell id="mDtHskoxkxQPZ0tNgV-b-263" value="" style="shape=partialRectangle;connectable=0;fillColor=none;top=0;left=0;bottom=0;right=0;editable=1;overflow=hidden;" parent="mDtHskoxkxQPZ0tNgV-b-262" vertex="1">
          <mxGeometry width="30" height="30" as="geometry" />
        </mxCell>
        <mxCell id="mDtHskoxkxQPZ0tNgV-b-264" value="updated_on (DataTimeField)" style="shape=partialRectangle;connectable=0;fillColor=none;top=0;left=0;bottom=0;right=0;align=left;spacingLeft=6;overflow=hidden;" parent="mDtHskoxkxQPZ0tNgV-b-262" vertex="1">
          <mxGeometry x="30" width="190" height="30" as="geometry" />
        </mxCell>
        <mxCell id="mDtHskoxkxQPZ0tNgV-b-286" value="" style="shape=partialRectangle;collapsible=0;dropTarget=0;pointerEvents=0;fillColor=none;top=0;left=0;bottom=0;right=0;points=[[0,0.5],[1,0.5]];portConstraint=eastwest;" parent="mDtHskoxkxQPZ0tNgV-b-234" vertex="1">
          <mxGeometry y="240" width="220" height="30" as="geometry" />
        </mxCell>
        <mxCell id="mDtHskoxkxQPZ0tNgV-b-287" value="FK" style="shape=partialRectangle;connectable=0;fillColor=#d5e8d4;top=0;left=0;bottom=0;right=0;editable=1;overflow=hidden;strokeColor=#82b366;" parent="mDtHskoxkxQPZ0tNgV-b-286" vertex="1">
          <mxGeometry width="30" height="30" as="geometry" />
        </mxCell>
        <mxCell id="mDtHskoxkxQPZ0tNgV-b-288" value="specie_id" style="shape=partialRectangle;connectable=0;fillColor=#d5e8d4;top=0;left=0;bottom=0;right=0;align=left;spacingLeft=6;overflow=hidden;strokeColor=#82b366;" parent="mDtHskoxkxQPZ0tNgV-b-286" vertex="1">
          <mxGeometry x="30" width="190" height="30" as="geometry" />
        </mxCell>
        <mxCell id="mDtHskoxkxQPZ0tNgV-b-298" value="" style="shape=partialRectangle;collapsible=0;dropTarget=0;pointerEvents=0;fillColor=none;top=0;left=0;bottom=0;right=0;points=[[0,0.5],[1,0.5]];portConstraint=eastwest;strokeColor=#82b366;" parent="mDtHskoxkxQPZ0tNgV-b-234" vertex="1">
          <mxGeometry y="270" width="220" height="30" as="geometry" />
        </mxCell>
        <mxCell id="mDtHskoxkxQPZ0tNgV-b-299" value="FK" style="shape=partialRectangle;connectable=0;fillColor=#ffe6cc;top=0;left=0;bottom=0;right=0;fontStyle=0;overflow=hidden;strokeColor=#d79b00;" parent="mDtHskoxkxQPZ0tNgV-b-298" vertex="1">
          <mxGeometry width="30" height="30" as="geometry" />
        </mxCell>
        <mxCell id="mDtHskoxkxQPZ0tNgV-b-300" value="client_id" style="shape=partialRectangle;connectable=0;fillColor=#ffe6cc;top=0;left=0;bottom=0;right=0;align=left;spacingLeft=6;fontStyle=0;overflow=hidden;strokeColor=#d79b00;" parent="mDtHskoxkxQPZ0tNgV-b-298" vertex="1">
          <mxGeometry x="30" width="190" height="30" as="geometry" />
        </mxCell>
        <mxCell id="mDtHskoxkxQPZ0tNgV-b-266" value="species_specie" style="shape=table;startSize=30;container=1;collapsible=1;childLayout=tableLayout;fixedRows=1;rowLines=0;fontStyle=1;align=center;resizeLast=1;" parent="1" vertex="1">
          <mxGeometry x="-680" y="953" width="220" height="100" as="geometry">
            <mxRectangle x="-420" y="790" width="110" height="30" as="alternateBounds" />
          </mxGeometry>
        </mxCell>
        <mxCell id="mDtHskoxkxQPZ0tNgV-b-267" value="" style="shape=partialRectangle;collapsible=0;dropTarget=0;pointerEvents=0;fillColor=none;top=0;left=0;bottom=1;right=0;points=[[0,0.5],[1,0.5]];portConstraint=eastwest;" parent="mDtHskoxkxQPZ0tNgV-b-266" vertex="1">
          <mxGeometry y="30" width="220" height="30" as="geometry" />
        </mxCell>
        <mxCell id="mDtHskoxkxQPZ0tNgV-b-268" value="PK" style="shape=partialRectangle;connectable=0;fillColor=#d5e8d4;top=0;left=0;bottom=0;right=0;fontStyle=1;overflow=hidden;strokeColor=#82b366;" parent="mDtHskoxkxQPZ0tNgV-b-267" vertex="1">
          <mxGeometry width="30" height="30" as="geometry" />
        </mxCell>
        <mxCell id="mDtHskoxkxQPZ0tNgV-b-269" value="id" style="shape=partialRectangle;connectable=0;fillColor=#d5e8d4;top=0;left=0;bottom=0;right=0;align=left;spacingLeft=6;fontStyle=5;overflow=hidden;strokeColor=#82b366;" parent="mDtHskoxkxQPZ0tNgV-b-267" vertex="1">
          <mxGeometry x="30" width="190" height="30" as="geometry" />
        </mxCell>
        <mxCell id="mDtHskoxkxQPZ0tNgV-b-282" value="" style="shape=partialRectangle;collapsible=0;dropTarget=0;pointerEvents=0;fillColor=none;top=0;left=0;bottom=0;right=0;points=[[0,0.5],[1,0.5]];portConstraint=eastwest;" parent="mDtHskoxkxQPZ0tNgV-b-266" vertex="1">
          <mxGeometry y="60" width="220" height="30" as="geometry" />
        </mxCell>
        <mxCell id="mDtHskoxkxQPZ0tNgV-b-283" value="" style="shape=partialRectangle;connectable=0;fillColor=none;top=0;left=0;bottom=0;right=0;editable=1;overflow=hidden;" parent="mDtHskoxkxQPZ0tNgV-b-282" vertex="1">
          <mxGeometry width="30" height="30" as="geometry" />
        </mxCell>
        <mxCell id="mDtHskoxkxQPZ0tNgV-b-284" value="specie (CharFiels 100)" style="shape=partialRectangle;connectable=0;fillColor=none;top=0;left=0;bottom=0;right=0;align=left;spacingLeft=6;overflow=hidden;" parent="mDtHskoxkxQPZ0tNgV-b-282" vertex="1">
          <mxGeometry x="30" width="190" height="30" as="geometry" />
        </mxCell>
        <mxCell id="mDtHskoxkxQPZ0tNgV-b-291" value="" style="endArrow=none;html=1;rounded=0;dashed=1;dashPattern=1 2;" parent="1" edge="1">
          <mxGeometry relative="1" as="geometry">
            <mxPoint x="-320" y="800" as="sourcePoint" />
            <mxPoint x="-160" y="800" as="targetPoint" />
          </mxGeometry>
        </mxCell>
        <mxCell id="mDtHskoxkxQPZ0tNgV-b-302" style="edgeStyle=orthogonalEdgeStyle;rounded=0;orthogonalLoop=1;jettySize=auto;html=1;entryX=0;entryY=0.5;entryDx=0;entryDy=0;" parent="1" source="mDtHskoxkxQPZ0tNgV-b-78" target="mDtHskoxkxQPZ0tNgV-b-298" edge="1">
          <mxGeometry relative="1" as="geometry">
            <mxPoint x="-420" y="1010" as="targetPoint" />
            <mxPoint x="-340" y="465.0588235294117" as="sourcePoint" />
            <Array as="points">
              <mxPoint x="-380" y="465" />
              <mxPoint x="-380" y="1085" />
            </Array>
          </mxGeometry>
        </mxCell>
        <mxCell id="mDtHskoxkxQPZ0tNgV-b-320" value="1" style="resizable=0;html=1;align=right;verticalAlign=bottom;" parent="1" connectable="0" vertex="1">
          <mxGeometry x="-330.01666319524816" y="1029.9997222800794" as="geometry">
            <mxPoint x="-25" y="18" as="offset" />
          </mxGeometry>
        </mxCell>
        <mxCell id="mDtHskoxkxQPZ0tNgV-b-321" style="edgeStyle=orthogonalEdgeStyle;rounded=0;orthogonalLoop=1;jettySize=auto;html=1;entryX=0;entryY=0.5;entryDx=0;entryDy=0;" parent="1" source="mDtHskoxkxQPZ0tNgV-b-267" target="mDtHskoxkxQPZ0tNgV-b-286" edge="1">
          <mxGeometry relative="1" as="geometry" />
        </mxCell>
        <mxCell id="mDtHskoxkxQPZ0tNgV-b-322" value="N" style="resizable=0;html=1;align=right;verticalAlign=bottom;" parent="1" connectable="0" vertex="1">
          <mxGeometry x="-330.01666319524816" y="1059.9997222800794" as="geometry">
            <mxPoint x="-25" y="18" as="offset" />
          </mxGeometry>
        </mxCell>
        <mxCell id="mDtHskoxkxQPZ0tNgV-b-323" style="edgeStyle=orthogonalEdgeStyle;rounded=0;orthogonalLoop=1;jettySize=auto;html=1;entryX=0;entryY=0.5;entryDx=0;entryDy=0;" parent="1" source="mDtHskoxkxQPZ0tNgV-b-183" target="mDtHskoxkxQPZ0tNgV-b-74" edge="1">
          <mxGeometry relative="1" as="geometry">
            <Array as="points">
              <mxPoint x="-80" y="265" />
              <mxPoint x="-80" y="875" />
            </Array>
          </mxGeometry>
        </mxCell>
        <mxCell id="mDtHskoxkxQPZ0tNgV-b-325" value="1" style="text;strokeColor=none;fillColor=none;spacingLeft=4;spacingRight=4;overflow=hidden;rotatable=0;points=[[0,0.5],[1,0.5]];portConstraint=eastwest;fontSize=12;pointerEvents=0;align=center;verticalAlign=middle;" parent="1" vertex="1">
          <mxGeometry x="-51" y="850" width="30" height="20" as="geometry" />
        </mxCell>
        <mxCell id="mDtHskoxkxQPZ0tNgV-b-326" style="edgeStyle=orthogonalEdgeStyle;rounded=0;orthogonalLoop=1;jettySize=auto;html=1;entryX=-0.009;entryY=0.618;entryDx=0;entryDy=0;entryPerimeter=0;" parent="1" source="mDtHskoxkxQPZ0tNgV-b-78" target="mDtHskoxkxQPZ0tNgV-b-71" edge="1">
          <mxGeometry relative="1" as="geometry" />
        </mxCell>
        <mxCell id="mDtHskoxkxQPZ0tNgV-b-327" value="1" style="text;strokeColor=none;fillColor=none;spacingLeft=4;spacingRight=4;overflow=hidden;rotatable=0;points=[[0,0.5],[1,0.5]];portConstraint=eastwest;fontSize=12;pointerEvents=0;align=center;verticalAlign=middle;" parent="1" vertex="1">
          <mxGeometry x="-51" y="798" width="30" height="20" as="geometry" />
        </mxCell>
        <mxCell id="mDtHskoxkxQPZ0tNgV-b-328" style="edgeStyle=orthogonalEdgeStyle;rounded=0;orthogonalLoop=1;jettySize=auto;html=1;entryX=0;entryY=0.5;entryDx=0;entryDy=0;" parent="1" source="mDtHskoxkxQPZ0tNgV-b-3" target="mDtHskoxkxQPZ0tNgV-b-171" edge="1">
          <mxGeometry relative="1" as="geometry">
            <Array as="points">
              <mxPoint x="270" y="975" />
              <mxPoint x="270" y="845" />
            </Array>
          </mxGeometry>
        </mxCell>
        <mxCell id="mDtHskoxkxQPZ0tNgV-b-329" style="edgeStyle=orthogonalEdgeStyle;rounded=0;orthogonalLoop=1;jettySize=auto;html=1;entryX=1;entryY=0.5;entryDx=0;entryDy=0;" parent="1" source="mDtHskoxkxQPZ0tNgV-b-168" target="mDtHskoxkxQPZ0tNgV-b-56" edge="1">
          <mxGeometry relative="1" as="geometry" />
        </mxCell>
        <mxCell id="mDtHskoxkxQPZ0tNgV-b-375" style="edgeStyle=orthogonalEdgeStyle;rounded=0;orthogonalLoop=1;jettySize=auto;html=1;entryX=1;entryY=0.5;entryDx=0;entryDy=0;" parent="1" source="mDtHskoxkxQPZ0tNgV-b-183" target="mDtHskoxkxQPZ0tNgV-b-33" edge="1">
          <mxGeometry relative="1" as="geometry">
            <Array as="points">
              <mxPoint x="630" y="265" />
              <mxPoint x="630" y="1245" />
            </Array>
          </mxGeometry>
        </mxCell>
        <mxCell id="mDtHskoxkxQPZ0tNgV-b-424" value="&lt;h1&gt;2021-1-N2-dev06&lt;/h1&gt;&lt;div&gt;&lt;h1&gt;Sistema de Clínica de Veterinária (PetApp)&lt;/h1&gt;&lt;/div&gt;&lt;div&gt;&lt;br&gt;&lt;/div&gt;&lt;div&gt;&lt;h1&gt;Grupo: Fernando Vinadé - Gabriel Santos - Ronaldo Teles &lt;br&gt;&lt;/h1&gt;&lt;/div&gt;" style="shape=note;size=20;whiteSpace=wrap;html=1;pointerEvents=0;strokeColor=#82b366;fillColor=#D5E8D4;align=center;verticalAlign=top;" parent="1" vertex="1">
          <mxGeometry x="-310" y="10" width="810" height="190" as="geometry" />
        </mxCell>
      </root>
    </mxGraphModel>
  </diagram>
</mxfile>
